<svg xmlns="http://www.w3.org/2000/svg" width="160" height="32" viewBox="0 0 160 32">
    <g fill="none" fill-rule="evenodd">
        <path fill="#444A52" d="M110.752 14.98H64.514l1.362 2.372-3.355 5.846H49.7l4.773 8.314H67.29l5.99-7.537H131.131l5.988 7.537h12.089l6.566-11.478h-4.801l-4.288 3.164h-9.229l-3.356-5.846 1.363-2.372z"/>
        <path fill="#9DA4AA" d="M134.679 0l-6.034 7.595H71.322L65.287 0H52.65l-4.774 8.313h12.858l3.373 5.875-3.356 5.844H47.887l4.772 8.315h12.685l5.99-7.538H128.63l5.99 7.538h12.686l4.772-8.315h-12.865l-3.356-5.844 3.372-5.875h12.858L147.314 0z"/>
        <path fill="#CACED2" d="M132.325 14.155l5.117 8.914h12.878l1.758-3.061h-12.88l-3.358-5.85 3.375-5.881h12.873l-1.76-3.065h-12.867z"/>
        <path fill="#FFF" d="M131.356 14.154l5.602 9.762h12.877l.485-.847h-12.878l-5.116-8.914 5.135-8.944 12.867.001-.486-.844-12.863-.003z"/>
        <path fill="#CACED2" d="M49.636 5.212l-1.759 3.064H60.75l3.376 5.88-3.36 5.852H47.887l1.757 3.062h12.878l5.117-8.915-5.137-8.943zM74.395 15.7h51.176v-3.103H74.395z"/>
        <path fill="#5B6770" d="M74.395 12.59h51.176v-.836H74.395z"/>
        <path fill="#FFF" d="M74.395 16.513h51.176v-.837H74.395z"/>
        <path fill="#5B6770" d="M50.122 4.368l-.486.844h12.866l5.137 8.943-5.117 8.914H49.644l.485.847h12.878l5.602-9.761v-.001l-5.624-9.789zM131.357 14.122l-.002.005 5.624 9.79 12.863-.003.486-.846-12.867.002-5.136-8.943.004-.005z"/>
        <path fill="#FFF" d="M50.122 4.368l-.486.844h12.866l5.137 8.942-.002.004h.97l.002-.004-5.624-9.789z"/>
        <path fill="#EB564F" d="M1.974 13.171c.706 0 1.073-.519 1.073-1.172 0-.707-.472-1.17-1.073-1.17-.615 0-1.072.463-1.072 1.17 0 .663.478 1.172 1.072 1.172m0-3.171c1.131 0 1.976.768 1.976 2 0 1.171-.845 2-1.976 2C.844 14 0 13.232 0 12c0-1.122.79-2 1.974-2M5.742 12.337v.768c.138.016.223.028.318.028.35 0 .462-.182.462-.398 0-.226-.116-.431-.424-.431a2.13 2.13 0 0 0-.356.033zm-.849-2.27h2.24v.828h-1.39v.614c.1-.022.307-.034.424-.034.717 0 1.205.464 1.205 1.194 0 .806-.515 1.293-1.444 1.293-.488 0-.818-.028-1.035-.028v-3.867zM9.226 10.895v.884c.122.016.265.027.387.027.223 0 .5-.099.5-.475 0-.342-.213-.447-.515-.447-.112 0-.197.005-.372.011zm-.85 3.039v-3.868c.207 0 .85-.012 1.137-.012 1.13 0 1.501.614 1.501 1.283 0 .69-.514 1.298-1.374 1.298-.08 0-.281 0-.414-.017v1.316h-.85zM12.745 12.292h.833l-.414-1.094-.419 1.094zm.064-2.226h.759l1.544 3.868h-.907l-.308-.813h-1.47l-.309.813h-.854l1.545-3.868zM15.65 13.304l.463-.602c.217.254.53.47.833.47.229 0 .52-.095.52-.41 0-.225-.175-.391-.578-.391h-.34v-.83h.318c.245 0 .457-.11.457-.354 0-.242-.17-.358-.409-.358-.244 0-.461.116-.658.403l-.488-.597c.239-.359.711-.635 1.258-.635.663 0 1.146.38 1.146 1.088 0 .277-.132.59-.467.823v.018c.44.142.61.48.61.922 0 .712-.668 1.149-1.332 1.149-.753 0-1.136-.387-1.332-.696M21.088 13.171c.706 0 1.072-.519 1.072-1.172 0-.707-.472-1.17-1.072-1.17-.615 0-1.072.463-1.072 1.17 0 .663.477 1.172 1.072 1.172m0-3.171c1.13 0 1.975.768 1.975 2 0 1.171-.844 2-1.975 2-1.13 0-1.974-.768-1.974-2 0-1.122.79-2 1.974-2M24.856 12.37v.724a.92.92 0 0 0 .287.034c.328 0 .493-.15.493-.41 0-.243-.174-.348-.45-.348h-.33zm0-1.475v.702h.282c.217 0 .392-.095.392-.377 0-.23-.202-.348-.408-.348-.107 0-.17.012-.266.023zm-.85-.818c.207-.01.723-.033 1.126-.033.887 0 1.247.424 1.247.962 0 .402-.148.673-.424.861v.011c.27.106.53.387.53.884 0 .813-.605 1.194-1.411 1.194-.356 0-.85-.012-1.067-.033v-3.846zM28.538 12.292h.833l-.414-1.094-.419 1.094zm.064-2.226h.759l1.545 3.868h-.908l-.308-.813h-1.47l-.308.813h-.855l1.545-3.868zM30.966 10.066h3.078v.829H32.93v3.039h-.849v-3.039h-1.114zM34.88 10.066h2.202v.829H35.73v.68h1.194v.828H35.73v.702h1.407v.829H34.88zM40.37 10.895h-.818l-.08.73c-.223 2.038-.69 2.458-1.56 2.309l.015-.885c.308.055.627-.065.775-2.21l.053-.773h2.463v3.868h-.849v-3.039zM43.25 12.11v.984c.095.01.17.022.249.022.346 0 .584-.144.584-.536 0-.37-.266-.497-.578-.497-.07 0-.149.012-.255.027zm0-.834c.133-.017.249-.022.329-.022.966 0 1.406.514 1.406 1.304 0 .829-.552 1.387-1.587 1.387-.382 0-.78-.012-.997-.012v-3.866h.849v1.209zM48.108 12.376h-1.353v1.558h-.85v-3.868h.85v1.48h1.353v-1.48h.85v3.868h-.85zM53.032 13.934h.85v-3.867h-.85v3.867zM50.99 12.11v.984c.095.01.17.022.25.022.345 0 .53-.171.53-.536 0-.343-.212-.497-.525-.497-.07 0-.149.012-.255.027zm0-.834c.133-.017.25-.022.329-.022.913 0 1.354.514 1.354 1.304 0 .829-.553 1.387-1.535 1.387-.382 0-.78-.012-.997-.012v-3.866h.849v1.209zM56.444 9.163c0 .198.096.262.33.262.201 0 .307-.037.307-.262h.797c.01.508-.441.837-1.105.837-.716 0-1.125-.335-1.125-.837h.796zm-1.38 4.77v-3.867h.85v2.403l1.645-2.403h.743v3.867h-.849V11.53l-1.646 2.403h-.743zM23.938 15.4h.85v3.085h1.273V15.4h.85v3.085h.504V20h-.796v-.673h-2.681zM28.281 15.4h2.203v.842h-1.353v.69h1.194v.841h-1.194v.712h1.406v.842h-2.256zM33.792 17.745H32.44v1.582h-.85V15.4h.85v1.503h1.353V15.4h.85v3.927h-.85zM35.478 15.4h3.078v.842h-1.114v3.085h-.85v-3.085h-1.114zM40.241 16.241v.898c.122.016.266.028.387.028.223 0 .5-.102.5-.482 0-.348-.213-.455-.515-.455-.112 0-.197.006-.372.011zm-.849 3.086V15.4c.206 0 .85-.011 1.136-.011 1.13 0 1.502.622 1.502 1.302 0 .7-.515 1.317-1.375 1.317-.08 0-.281 0-.414-.017v1.336h-.849zM46.996 19.327h-.85v-1.504c-.153.13-.424.23-.796.23-.536 0-1.141-.297-1.141-1.25V15.4h.85v1.134c0 .577.25.677.52.677a.922.922 0 0 0 .568-.207V15.4h.849v3.927zM47.832 15.4h3.078v.842h-1.115v3.085h-.849v-3.085h-1.114zM53.896 16.241h-1.301v3.086h-.85V15.4h3v3.927h-.85zM55.637 18.687l.462-.612c.217.26.53.478.834.478.228 0 .52-.096.52-.416 0-.23-.175-.398-.579-.398h-.34v-.842h.319c.244 0 .457-.112.457-.358 0-.247-.17-.365-.41-.365-.244 0-.46.118-.657.41l-.489-.606c.24-.365.712-.645 1.258-.645.663 0 1.147.386 1.147 1.104 0 .282-.133.6-.468.836v.017c.441.146.611.489.611.937 0 .724-.67 1.167-1.332 1.167-.754 0-1.136-.393-1.333-.707M143.637 12.62h-2.091v4.713h-1.367v-6h4.823v6h-1.365zM146.742 11.333h1.375l1.843 2.529 1.742-2.529h1.288v6h-1.366v-3.822l-1.664 2.339h-.196l-1.656-2.314v3.797h-1.366zM154.738 11.333h1.365v2.615l1.956-2.615h1.638l-2.245 2.769 2.424 3.231h-1.732l-2.04-2.854v2.854h-1.366z"/>
    </g>
</svg>
